<?xml version="1.0" encoding="utf-8"?>
<!-- Generator: Adobe Illustrator 18.1.0, SVG Export Plug-In . SVG Version: 6.00 Build 0)  -->
<svg version="1.1" id="Layer_1" xmlns="http://www.w3.org/2000/svg" xmlns:xlink="http://www.w3.org/1999/xlink" x="0px" y="0px"
     viewBox="0 0 200 200" enable-background="new 0 0 200 200" xml:space="preserve">
<path fill="#FFC91D" d="M147.5,177.5c-1.5,0-3.1-0.4-4.7-1.3l-37.1-19.5c-3-1.5-8.7-1.5-11.7,0l-37.1,19.5c-3.9,2-7.6,1.6-9.8-1
    c-1-1.2-2.2-3.5-1.5-7.2l7.1-41.4c0.6-3.5-1.1-8.6-3.6-11.1L19,86.3c-2.6-2.6-3.6-5.5-2.7-8.2c0.9-2.7,3.5-4.5,7.1-5l41.5-6
    c3.5-0.5,7.9-3.7,9.4-6.9l18.6-37.6c1.6-3.3,4.1-5.1,7-5.1c2.8,0,5.4,1.9,7,5.1l18.6,37.6c1.5,3.2,6,6.4,9.4,6.9l41.5,6
    c3.6,0.5,6.2,2.4,7.1,5c0.9,2.7-0.1,5.7-2.7,8.2l-30,29.3c-2.5,2.4-4.2,7.6-3.6,11.1l7.1,41.4c0.6,3.7-0.5,6-1.5,7.2
    C151.3,176.6,149.5,177.5,147.5,177.5z M99.8,148.2c3.4,0,6.7,0.7,9.2,2.1l37.1,19.5c0.4,0.2,0.7,0.3,0.9,0.4c0-0.3,0-0.6-0.1-1
    l-7.1-41.4c-1-5.7,1.5-13.4,5.7-17.5l30.1-29.3c0.3-0.3,0.5-0.6,0.6-0.8c-0.2-0.1-0.5-0.2-1-0.3l-41.5-6
    c-5.8-0.8-12.3-5.6-14.9-10.8l-18.6-37.6c-0.2-0.4-0.4-0.7-0.5-0.9c-0.1,0.2-0.3,0.5-0.5,0.9L80.7,63.3c-2.6,5.2-9.1,10-14.9,10.8
    l-41.5,6c-0.4,0.1-0.8,0.1-1,0.3c0.1,0.2,0.4,0.5,0.6,0.8l30.1,29.3c4.2,4.1,6.7,11.7,5.7,17.5l-7.1,41.4c-0.1,0.4-0.1,0.8-0.1,1
    c0.2-0.1,0.5-0.2,0.9-0.4l37.1-19.5C93.2,149,96.4,148.2,99.8,148.2z"/>
<polygon fill="#FFC91D" stroke="#FFC91D" stroke-width="3" stroke-miterlimit="10" points="99.8,21.1 124.5,71.2 179.8,79.3 
    139.8,118.3 149.3,173.4 99.8,147.4 50.3,173.4 59.7,118.3 19.7,79.3 75,71.2 "/>
</svg>
